<?xml version="1.0" encoding="UTF-8" standalone="no"?>
<!-- Created with Inkscape (http://www.inkscape.org/) -->

<svg
   width="100mm"
   height="27mm"
   viewBox="0 0 100 27"
   version="1.1"
   id="svg18205"
   inkscape:version="1.1.1 (c3084ef, 2021-09-22)"
   sodipodi:docname="Logo - shapes.svg"
   xmlns:inkscape="http://www.inkscape.org/namespaces/inkscape"
   xmlns:sodipodi="http://sodipodi.sourceforge.net/DTD/sodipodi-0.dtd"
   xmlns="http://www.w3.org/2000/svg"
   xmlns:svg="http://www.w3.org/2000/svg">
  <sodipodi:namedview
     id="namedview18207"
     pagecolor="#ffffff"
     bordercolor="#666666"
     borderopacity="1.0"
     inkscape:pageshadow="2"
     inkscape:pageopacity="0.0"
     inkscape:pagecheckerboard="true"
     inkscape:document-units="mm"
     showgrid="false"
     inkscape:zoom="1.4490985"
     inkscape:cx="155.61399"
     inkscape:cy="120.4197"
     inkscape:window-width="1312"
     inkscape:window-height="792"
     inkscape:window-x="60"
     inkscape:window-y="25"
     inkscape:window-maximized="0"
     inkscape:current-layer="layer5" />
  <defs
     id="defs18202" />
  <g
     inkscape:label="Shadow"
     inkscape:groupmode="layer"
     id="g17847"
     style="display:inline">
    <g
       aria-label="Snackbart"
       id="text18649"
       style="font-size:20.8617px;line-height:1.25;font-family:Pacifico;-inkscape-font-specification:'Pacifico, Normal';font-variant-ligatures:discretionary-ligatures no-contextual;display:inline;fill:#612b26;stroke-width:1.9022;paint-order:stroke fill markers">
      <path
         d="m 10.373427,24.655509 q -2.7746062,0 -4.4435422,-1.043085 -1.668936,-1.063947 -1.668936,-3.233564 0,-1.147393 0.3963723,-1.752383 0.3963723,-0.604989 1.1682552,-0.604989 0.5632659,0 0.9179148,0.292064 0.3546489,0.292064 0.3546489,0.751021 0,0.417234 -0.062585,0.73016 0,0.08345 -0.041723,0.292063 -0.020862,0.208617 -0.020862,0.438096 0,0.938777 0.9387765,1.397734 0.9596382,0.458957 2.6702975,0.458957 1.773244,0 2.774606,-0.625851 1.001362,-0.646712 1.001362,-1.794106 0,-0.709298 -0.458958,-1.209978 -0.458957,-0.521543 -1.147393,-0.85533 -0.688436,-0.354649 -1.940138,-0.85533 Q 9.2051717,16.415137 8.1829484,15.851871 7.1815868,15.288605 6.4514273,14.328967 5.7421295,13.348467 5.7421295,11.90901 q 0,-1.502043 0.7927446,-2.6702977 0.8136063,-1.1682552 2.3156487,-1.8149679 1.5229042,-0.6467127 3.5673512,-0.6467127 1.522904,0 2.795467,0.4589574 1.272564,0.4380957 2.023585,1.3560105 0.771883,0.9179148 0.771883,2.2530634 0,1.314287 -0.396372,1.981862 -0.396372,0.667574 -1.168255,0.667574 -0.542405,0 -0.917915,-0.333787 -0.354649,-0.333787 -0.354649,-0.792745 0,-0.396372 0.06259,-0.730159 0.06258,-0.625851 0.06258,-0.792745 0,-0.8761912 -0.85533,-1.3351486 -0.855329,-0.4589574 -2.127893,-0.4589574 -1.794106,0 -2.7537444,0.6675744 -0.9387765,0.6467126 -0.9387765,1.8358296 0,0.792745 0.4798191,1.356011 0.5006808,0.563265 1.2308408,0.938776 0.730159,0.375511 2.044446,0.897053 1.585489,0.646713 2.545128,1.168255 0.959638,0.521543 1.627212,1.418596 0.688436,0.897053 0.688436,2.21134 0,2.461681 -1.877553,3.79683 -1.856691,1.314287 -4.985946,1.314287 z"
         id="path5909" />
      <path
         d="m 20.376612,24.592924 q -0.792745,0 -1.126532,-0.834468 -0.312925,-0.834468 -0.312925,-2.670298 0,-2.712021 0.771883,-5.15284 0.187755,-0.604989 0.604989,-0.876191 0.438096,-0.292064 1.209978,-0.292064 0.417234,0 0.584128,0.104308 0.166894,0.104309 0.166894,0.396373 0,0.333787 -0.312926,1.502042 -0.208617,0.834468 -0.333787,1.460319 -0.12517,0.625851 -0.208617,1.543766 0.688436,-1.794106 1.543766,-2.920638 0.855329,-1.126532 1.668936,-1.606351 0.834468,-0.479819 1.522904,-0.479819 1.35601,0 1.35601,1.35601 0,0.813607 -0.458957,2.9415 -0.396372,1.814968 -0.396372,2.399096 0,0.834468 0.604989,0.834468 0.417234,0 0.9805,-0.500681 0.584128,-0.521543 1.543766,-1.668936 0.25034,-0.292064 0.563266,-0.292064 0.271202,0 0.417234,0.25034 0.166893,0.250341 0.166893,0.688436 0,0.834468 -0.396372,1.293426 -0.897053,1.10567 -1.940138,1.814968 -1.022224,0.709298 -2.336511,0.709298 -1.063946,0 -1.606351,-0.60499 -0.542404,-0.625851 -0.542404,-1.794106 0,-0.584128 0.292064,-2.08617 0.271202,-1.314287 0.271202,-1.814968 0,-0.333787 -0.229479,-0.333787 -0.271202,0 -0.771882,0.709298 -0.47982,0.688436 -1.001362,1.835829 -0.500681,1.147394 -0.813606,2.419958 -0.229479,0.980499 -0.542405,1.335148 -0.292063,0.333788 -0.938776,0.333788 z"
         id="path5911" />
      <path
         d="m 31.810778,24.592924 q -1.293425,0 -2.065308,-0.938777 -0.771883,-0.938776 -0.771883,-2.461681 0,-1.668936 0.771883,-3.150116 0.771883,-1.502043 2.044446,-2.399096 1.293426,-0.917915 2.732883,-0.917915 0.458957,0 0.604989,0.187756 0.166894,0.166893 0.271202,0.625851 0.438096,-0.08345 0.917915,-0.08345 1.022224,0 1.022224,0.730159 0,0.438096 -0.312926,2.08617 -0.479819,2.399096 -0.479819,3.337872 0,0.312926 0.146032,0.500681 0.166893,0.187756 0.417234,0.187756 0.396372,0 0.959638,-0.500681 0.563266,-0.521543 1.522904,-1.668936 0.250341,-0.292064 0.563266,-0.292064 0.271202,0 0.417234,0.25034 0.166894,0.250341 0.166894,0.688436 0,0.834468 -0.396373,1.293426 -0.855329,1.063947 -1.814968,1.794106 -0.959638,0.73016 -1.856691,0.73016 -0.688436,0 -1.272564,-0.458958 -0.563266,-0.479819 -0.855329,-1.293425 -1.084809,1.752383 -2.732883,1.752383 z m 0.751021,-2.107032 q 0.458958,0 0.876192,-0.542404 0.417234,-0.542405 0.604989,-1.439458 l 0.771883,-3.838552 q -0.876192,0.02086 -1.627213,0.667574 -0.730159,0.625851 -1.168255,1.668936 -0.438096,1.043085 -0.438096,2.21134 0,0.646713 0.250341,0.959638 0.271202,0.312926 0.730159,0.312926 z"
         id="path5913" />
      <path
         d="m 43.049041,24.592924 q -2.044446,0 -3.19184,-1.147394 -1.126532,-1.168255 -1.126532,-3.06667 0,-1.689798 0.667575,-2.962361 0.667574,-1.272564 1.731521,-1.961 1.063947,-0.688436 2.232202,-0.688436 1.147393,0 1.773244,0.688436 0.646713,0.667574 0.646713,1.731521 0,0.876191 -0.396372,1.481181 -0.375511,0.604989 -1.001362,0.604989 -0.396372,0 -0.646712,-0.187755 -0.229479,-0.187756 -0.229479,-0.521543 0,-0.146032 0.04172,-0.333787 0.04172,-0.187755 0.06258,-0.271202 0.104309,-0.312926 0.104309,-0.584128 0,-0.271202 -0.146032,-0.417234 -0.12517,-0.146032 -0.375511,-0.146032 -0.479819,0 -0.897053,0.438096 -0.417234,0.417234 -0.667574,1.147394 -0.250341,0.730159 -0.250341,1.606351 0,2.419957 2.107032,2.419957 0.85533,0 1.83583,-0.563266 1.001361,-0.584128 1.961,-1.731521 0.25034,-0.292064 0.563265,-0.292064 0.271203,0 0.417234,0.25034 0.166894,0.250341 0.166894,0.688436 0,0.792745 -0.396372,1.293426 -0.9805,1.209978 -2.357372,1.877553 -1.356011,0.646713 -2.628575,0.646713 z"
         id="path5915" />
      <path
         d="m 58.782676,19.836456 q 0.271202,0 0.417234,0.25034 0.166893,0.250341 0.166893,0.688436 0,0.834468 -0.396372,1.293426 -0.938777,1.147393 -1.898415,1.835829 -0.959638,0.688437 -2.273925,0.688437 -1.606351,0 -2.586851,-0.917915 -0.9805,-0.917915 -0.9805,-2.440819 0,-0.813606 0.834468,-1.168255 0.917915,-0.396373 1.314287,-0.834468 0.396373,-0.458958 0.396373,-1.10567 0,-0.375511 -0.166894,-0.563266 -0.146032,-0.187756 -0.375511,-0.187756 -0.563266,0 -1.251702,0.813607 -0.667574,0.813606 -1.251702,2.107031 -0.584127,1.272564 -0.917914,2.628575 -0.229479,0.980499 -0.542405,1.335148 -0.292063,0.333788 -0.938776,0.333788 -0.646713,0 -0.959638,-0.458958 -0.292064,-0.479819 -0.396373,-1.460319 -0.104308,-0.9805 -0.104308,-2.878914 0,-3.212702 0.646713,-6.696606 0.667574,-3.4839041 1.940138,-5.8412762 1.293425,-2.3782338 3.087531,-2.3782338 0.959638,0 1.543766,0.834468 0.604989,0.8136063 0.604989,2.1278934 0,2.1070317 -1.23084,4.3809566 -1.23084,2.253064 -4.005446,5.278011 -0.06258,1.084808 -0.06258,2.232201 1.001361,-2.607712 2.294787,-3.775967 1.293425,-1.189117 2.419957,-1.189117 1.043085,0 1.668936,0.709298 0.646712,0.709297 0.646712,1.752382 0,1.147394 -0.584127,2.107032 -0.584128,0.959638 -2.002723,1.71066 0.08345,0.563265 0.50068,0.917914 0.438096,0.333788 1.043085,0.333788 0.646713,0 1.251702,-0.500681 0.60499,-0.500681 1.58549,-1.668936 0.25034,-0.292064 0.563266,-0.292064 z M 52.106932,6.9439253 q -0.375511,0 -0.834468,1.0848084 -0.458958,1.0639467 -0.897054,2.8997763 -0.417234,1.814968 -0.688436,3.963723 1.293426,-1.522904 2.127894,-3.31701 0.855329,-1.7941065 0.855329,-3.2544255 0,-0.6675744 -0.146031,-1.0222233 -0.146032,-0.3546489 -0.417234,-0.3546489 z"
         id="path5917" />
      <path
         d="m 68.783578,18.084073 q 0.271202,0 0.417234,0.271202 0.146032,0.271202 0.146032,0.688436 0,0.521543 -0.146032,0.813607 -0.146032,0.271202 -0.458957,0.37551 -1.251702,0.438096 -2.753745,0.500681 -0.417234,1.731521 -1.585489,2.795468 -1.147393,1.063947 -2.545127,1.063947 -2.107032,0 -3.06667,-1.606351 -0.959638,-1.606351 -0.959638,-4.652159 0,-2.69116 0.667574,-5.841276 0.667574,-3.1709789 1.940138,-5.3823191 1.293426,-2.2322019 3.06667,-2.2322019 0.959638,0 1.543766,0.834468 0.584127,0.8136063 0.584127,2.1278934 0,1.7106594 -0.646712,3.4004566 -0.646713,1.689798 -2.148755,3.54649 1.397734,0.104308 2.273925,1.168255 0.876191,1.043085 1.043085,2.586851 0.9805,-0.06259 2.33651,-0.417234 0.125171,-0.04172 0.292064,-0.04172 z M 63.025749,6.9439253 q -0.417234,0 -0.917915,1.251702 -0.479819,1.2308403 -0.897053,3.3587337 -0.417234,2.127893 -0.625851,4.652159 1.376872,-2.524266 2.190479,-4.443542 0.834468,-1.9401381 0.834468,-3.4421805 0,-0.6675744 -0.166894,-1.0222233 Q 63.296951,6.9439253 63.025749,6.9439253 Z M 61.940941,22.381583 q 0.646712,0 1.147393,-0.542404 0.500681,-0.542404 0.667574,-1.564627 -0.646712,-0.438096 -1.001361,-1.147394 -0.333787,-0.709298 -0.333787,-1.502042 0,-0.292064 0.08345,-0.792745 h -0.06259 q -0.855329,0 -1.439457,0.85533 -0.563266,0.834468 -0.563266,2.253063 0,1.189117 0.438096,1.814968 0.458957,0.625851 1.063948,0.625851 z"
         id="path5919" />
      <path
         d="m 70.111555,24.592924 q -1.293425,0 -2.065308,-0.938777 -0.771883,-0.938776 -0.771883,-2.461681 0,-1.668936 0.771883,-3.150116 0.771883,-1.502043 2.044447,-2.399096 1.293425,-0.917915 2.732882,-0.917915 0.458958,0 0.60499,0.187756 0.166893,0.166893 0.271202,0.625851 0.438096,-0.08345 0.917915,-0.08345 1.022223,0 1.022223,0.730159 0,0.438096 -0.312926,2.08617 -0.479819,2.399096 -0.479819,3.337872 0,0.312926 0.146032,0.500681 0.166894,0.187756 0.417234,0.187756 0.396373,0 0.959638,-0.500681 0.563266,-0.521543 1.522905,-1.668936 0.25034,-0.292064 0.563265,-0.292064 0.271203,0 0.417234,0.25034 0.166894,0.250341 0.166894,0.688436 0,0.834468 -0.396372,1.293426 -0.85533,1.063947 -1.814968,1.794106 -0.959638,0.73016 -1.856691,0.73016 -0.688437,0 -1.272564,-0.458958 -0.563266,-0.479819 -0.85533,-1.293425 -1.084808,1.752383 -2.732883,1.752383 z m 0.751022,-2.107032 q 0.458957,0 0.876191,-0.542404 0.417234,-0.542405 0.604989,-1.439458 l 0.771883,-3.838552 q -0.876191,0.02086 -1.627212,0.667574 -0.73016,0.625851 -1.168256,1.668936 -0.438095,1.043085 -0.438095,2.21134 0,0.646713 0.25034,0.959638 0.271202,0.312926 0.73016,0.312926 z"
         id="path5921" />
      <path
         d="m 78.846419,24.592924 q -0.792745,0 -1.126532,-0.834468 -0.312926,-0.834468 -0.312926,-2.670298 0,-2.712021 0.771883,-5.15284 0.187756,-0.604989 0.60499,-0.876191 0.438095,-0.292064 1.209978,-0.292064 0.417234,0 0.584128,0.104308 0.166893,0.104309 0.166893,0.396373 0,0.333787 -0.312925,1.502042 -0.208617,0.834468 -0.333787,1.460319 -0.125171,0.625851 -0.208617,1.543766 0.688436,-1.794106 1.543765,-2.920638 0.85533,-1.126532 1.668936,-1.606351 0.834468,-0.479819 1.522905,-0.479819 1.35601,0 1.35601,1.35601 0,0.271202 -0.187755,1.314287 -0.166894,0.834468 -0.166894,1.043085 0,0.73016 0.521543,0.73016 0.584127,0 1.502042,-0.917915 0.271202,-0.271202 0.563266,-0.271202 0.271202,0 0.417234,0.25034 0.166894,0.229479 0.166894,0.625851 0,0.771883 -0.417234,1.209979 -0.584128,0.604989 -1.376873,1.043085 -0.771883,0.417234 -1.648074,0.417234 -1.10567,0 -1.689798,-0.563266 -0.563266,-0.563266 -0.563266,-1.522904 0,-0.312925 0.06259,-0.625851 0.04172,-0.417234 0.04172,-0.563266 0,-0.333787 -0.229479,-0.333787 -0.312925,0 -0.834468,0.709298 -0.500681,0.688436 -1.001361,1.835829 -0.500681,1.147394 -0.813607,2.419958 -0.229478,0.980499 -0.542404,1.335148 -0.292064,0.333788 -0.938777,0.333788 z"
         id="path5923" />
      <path
         d="m 96.774437,19.836456 q 0.271203,0 0.417234,0.25034 0.166894,0.250341 0.166894,0.688436 0,0.834468 -0.396372,1.293426 -0.897053,1.10567 -1.961,1.814968 -1.063947,0.709298 -2.440819,0.709298 -4.255787,0 -4.255787,-5.987308 0,-0.917915 0.06258,-1.856692 h -0.813606 q -0.625851,0 -0.85533,-0.229478 -0.208617,-0.229479 -0.208617,-0.73016 0,-1.168255 0.938777,-1.168255 h 1.189117 q 0.354649,-2.294787 1.084808,-4.193202 0.73016,-1.8984145 1.752383,-3.0249463 1.043085,-1.1265318 2.232202,-1.1265318 0.876191,0 1.376872,0.7718829 0.500681,0.7718829 0.500681,1.9401381 0,3.2335631 -2.712021,5.6326591 h 2.33651 q 0.333787,0 0.479819,0.146032 0.146032,0.146032 0.146032,0.542404 0,1.439457 -2.357372,1.439457 H 90.9123 q -0.04172,1.043085 -0.04172,1.627213 0,2.169617 0.500681,3.045808 0.521543,0.876192 1.627213,0.876192 0.897053,0 1.585489,-0.542405 0.688436,-0.542404 1.627213,-1.627212 0.25034,-0.292064 0.563265,-0.292064 z M 93.12364,8.2790741 q -0.312926,0 -0.709298,0.7927446 -0.37551,0.7718829 -0.730159,2.1696163 -0.333788,1.376873 -0.563266,3.06667 1.23084,-1.063946 1.835829,-2.378233 0.625851,-1.335149 0.625851,-2.4199576 0,-1.2308403 -0.458957,-1.2308403 z"
         id="path5925" />
    </g>
  </g>
  <g
     inkscape:groupmode="layer"
     id="layer6"
     inkscape:label="Text"
     style="display:inline">
    <g
       aria-label="Snackbart"
       id="text17841"
       style="font-size:20.8617px;line-height:1.25;font-family:Pacifico;-inkscape-font-specification:'Pacifico, Normal';font-variant-ligatures:discretionary-ligatures no-contextual;display:inline;fill:#ffe24a;stroke:#612b26;stroke-width:1.9022;paint-order:stroke fill markers">
      <path
         d="m 9.5635758,23.072516 q -2.7746062,0 -4.4435422,-1.043085 -1.668936,-1.063947 -1.668936,-3.233563 0,-1.147394 0.3963723,-1.752383 0.3963723,-0.60499 1.1682552,-0.60499 0.5632659,0 0.9179148,0.292064 0.3546489,0.292064 0.3546489,0.751021 0,0.417234 -0.062585,0.73016 0,0.08345 -0.041723,0.292064 -0.020862,0.208617 -0.020862,0.438095 0,0.938777 0.9387765,1.397734 0.9596382,0.458958 2.6702977,0.458958 1.7732442,0 2.7746062,-0.625851 1.001361,-0.646713 1.001361,-1.794106 0,-0.709298 -0.458957,-1.209979 -0.458957,-0.521543 -1.147393,-0.85533 -0.688437,-0.354649 -1.940139,-0.855329 -1.6063505,-0.625851 -2.6285738,-1.189117 -1.0013616,-0.563266 -1.7315211,-1.522904 -0.7092978,-0.9805 -0.7092978,-2.419958 0,-1.5020421 0.7927446,-2.6702973 0.8136063,-1.1682552 2.3156487,-1.8149679 1.5229042,-0.6467127 3.5673504,-0.6467127 1.522904,0 2.795468,0.4589574 1.272564,0.4380957 2.023585,1.3560105 0.771883,0.9179148 0.771883,2.2530636 0,1.3142874 -0.396372,1.9818614 -0.396373,0.667575 -1.168256,0.667575 -0.542404,0 -0.917914,-0.333788 -0.354649,-0.333787 -0.354649,-0.792744 0,-0.396373 0.06259,-0.73016 0.06258,-0.6258508 0.06258,-0.7927444 0,-0.8761914 -0.85533,-1.3351488 -0.855329,-0.4589574 -2.127893,-0.4589574 -1.7941063,0 -2.7537446,0.6675744 -0.9387765,0.6467127 -0.9387765,1.8358296 0,0.7927446 0.4798191,1.3560106 0.5006808,0.563266 1.2308404,0.938776 0.7301596,0.375511 2.0444466,0.897054 1.585489,0.646712 2.545127,1.168255 0.959639,0.521542 1.627213,1.418595 0.688436,0.897053 0.688436,2.211341 0,2.46168 -1.877553,3.796829 -1.856691,1.314287 -4.9859462,1.314287 z"
         id="path6354" />
      <path
         d="m 19.566761,23.009931 q -0.792745,0 -1.126532,-0.834468 -0.312925,-0.834468 -0.312925,-2.670298 0,-2.712021 0.771882,-5.15284 0.187756,-0.604989 0.60499,-0.876191 0.438095,-0.292064 1.209978,-0.292064 0.417234,0 0.584128,0.104309 0.166894,0.104308 0.166894,0.396372 0,0.333787 -0.312926,1.502042 -0.208617,0.834468 -0.333787,1.460319 -0.12517,0.625851 -0.208617,1.543766 0.688436,-1.794106 1.543766,-2.920638 0.855329,-1.126532 1.668936,-1.606351 0.834468,-0.479819 1.522904,-0.479819 1.35601,0 1.35601,1.356011 0,0.813606 -0.458957,2.941499 -0.396372,1.814968 -0.396372,2.399096 0,0.834468 0.604989,0.834468 0.417234,0 0.9805,-0.500681 0.584127,-0.521542 1.543766,-1.668936 0.25034,-0.292064 0.563265,-0.292064 0.271203,0 0.417234,0.250341 0.166894,0.25034 0.166894,0.688436 0,0.834468 -0.396372,1.293425 -0.897053,1.10567 -1.940138,1.814968 -1.022224,0.709298 -2.336511,0.709298 -1.063946,0 -1.606351,-0.604989 -0.542404,-0.625851 -0.542404,-1.794107 0,-0.584127 0.292064,-2.08617 0.271202,-1.314287 0.271202,-1.814967 0,-0.333788 -0.229479,-0.333788 -0.271202,0 -0.771883,0.709298 -0.479819,0.688436 -1.001361,1.83583 -0.500681,1.147393 -0.813606,2.419957 -0.229479,0.9805 -0.542405,1.335149 -0.292063,0.333787 -0.938776,0.333787 z"
         id="path6356" />
      <path
         d="m 31.000927,23.009931 q -1.293426,0 -2.065308,-0.938777 -0.771883,-0.938776 -0.771883,-2.46168 0,-1.668936 0.771883,-3.150117 0.771882,-1.502042 2.044446,-2.399095 1.293426,-0.917915 2.732883,-0.917915 0.458957,0 0.604989,0.187755 0.166894,0.166894 0.271202,0.625851 0.438096,-0.08345 0.917915,-0.08345 1.022223,0 1.022223,0.73016 0,0.438096 -0.312925,2.08617 -0.479819,2.399095 -0.479819,3.337872 0,0.312925 0.146032,0.500681 0.166893,0.187755 0.417234,0.187755 0.396372,0 0.959638,-0.500681 0.563266,-0.521542 1.522904,-1.668936 0.25034,-0.292064 0.563266,-0.292064 0.271202,0 0.417234,0.250341 0.166893,0.25034 0.166893,0.688436 0,0.834468 -0.396372,1.293425 -0.85533,1.063947 -1.814968,1.794106 -0.959638,0.73016 -1.856691,0.73016 -0.688436,0 -1.272564,-0.458957 -0.563266,-0.47982 -0.855329,-1.293426 -1.084809,1.752383 -2.732883,1.752383 z m 0.751021,-2.107032 q 0.458957,0 0.876191,-0.542404 0.417234,-0.542404 0.60499,-1.439457 l 0.771883,-3.838553 q -0.876192,0.02086 -1.627213,0.667574 -0.730159,0.625851 -1.168255,1.668936 -0.438096,1.043085 -0.438096,2.211341 0,0.646712 0.250341,0.959638 0.271202,0.312925 0.730159,0.312925 z"
         id="path6358" />
      <path
         d="m 42.23919,23.009931 q -2.044446,0 -3.19184,-1.147394 -1.126532,-1.168255 -1.126532,-3.066669 0,-1.689798 0.667575,-2.962362 0.667574,-1.272564 1.731521,-1.961 1.063947,-0.688436 2.232202,-0.688436 1.147393,0 1.773244,0.688436 0.646713,0.667575 0.646713,1.731521 0,0.876192 -0.396372,1.481181 -0.375511,0.604989 -1.001362,0.604989 -0.396372,0 -0.646713,-0.187755 -0.229478,-0.187755 -0.229478,-0.521542 0,-0.146032 0.04172,-0.333788 0.04172,-0.187755 0.06258,-0.271202 0.104309,-0.312925 0.104309,-0.584127 0,-0.271202 -0.146032,-0.417234 -0.12517,-0.146032 -0.375511,-0.146032 -0.479819,0 -0.897053,0.438096 -0.417234,0.417234 -0.667574,1.147393 -0.250341,0.73016 -0.250341,1.606351 0,2.419957 2.107032,2.419957 0.85533,0 1.83583,-0.563266 1.001361,-0.584127 1.960999,-1.731521 0.250341,-0.292064 0.563266,-0.292064 0.271202,0 0.417234,0.250341 0.166894,0.25034 0.166894,0.688436 0,0.792744 -0.396372,1.293425 -0.9805,1.209979 -2.357373,1.877553 -1.35601,0.646713 -2.628574,0.646713 z"
         id="path6360" />
      <path
         d="m 57.972824,18.253463 q 0.271203,0 0.417234,0.250341 0.166894,0.25034 0.166894,0.688436 0,0.834468 -0.396372,1.293425 -0.938777,1.147394 -1.898415,1.83583 -0.959638,0.688436 -2.273925,0.688436 -1.606351,0 -2.586851,-0.917915 -0.9805,-0.917915 -0.9805,-2.440819 0,-0.813606 0.834468,-1.168255 0.917915,-0.396372 1.314287,-0.834468 0.396372,-0.458957 0.396372,-1.10567 0,-0.375511 -0.166893,-0.563266 -0.146032,-0.187755 -0.375511,-0.187755 -0.563266,0 -1.251702,0.813606 -0.667574,0.813606 -1.251702,2.107032 -0.584127,1.272563 -0.917915,2.628574 -0.229478,0.9805 -0.542404,1.335149 -0.292064,0.333787 -0.938776,0.333787 -0.646713,0 -0.959639,-0.458957 -0.292063,-0.47982 -0.396372,-1.460319 -0.104308,-0.9805 -0.104308,-2.878915 0,-3.212702 0.646712,-6.696606 0.667575,-3.4839037 1.940138,-5.8412758 1.293426,-2.3782338 3.087532,-2.3782338 0.959638,0 1.543766,0.834468 0.604989,0.8136063 0.604989,2.1278934 0,2.1070317 -1.23084,4.3809572 -1.23084,2.253063 -4.005447,5.27801 -0.06258,1.084808 -0.06258,2.232202 1.001362,-2.607713 2.294787,-3.775968 1.293426,-1.189117 2.419958,-1.189117 1.043085,0 1.668936,0.709298 0.646712,0.709298 0.646712,1.752383 0,1.147393 -0.584127,2.107032 -0.584128,0.959638 -2.002724,1.710659 0.08345,0.563266 0.500681,0.917915 0.438096,0.333787 1.043085,0.333787 0.646713,0 1.251702,-0.500681 0.60499,-0.500681 1.58549,-1.668936 0.25034,-0.292064 0.563265,-0.292064 z M 51.29708,5.3609327 q -0.37551,0 -0.834468,1.0848084 -0.458957,1.0639467 -0.897053,2.8997763 -0.417234,1.8149676 -0.688436,3.9637226 1.293426,-1.522904 2.127894,-3.3170099 0.855329,-1.7941062 0.855329,-3.2544252 0,-0.6675744 -0.146032,-1.0222233 Q 51.568282,5.3609327 51.29708,5.3609327 Z"
         id="path6362" />
      <path
         d="m 67.973727,16.501081 q 0.271202,0 0.417234,0.271202 0.146032,0.271202 0.146032,0.688436 0,0.521542 -0.146032,0.813606 -0.146032,0.271202 -0.458957,0.375511 -1.251702,0.438095 -2.753745,0.50068 -0.417234,1.731522 -1.585489,2.795468 -1.147394,1.063947 -2.545127,1.063947 -2.107032,0 -3.06667,-1.606351 -0.959639,-1.606351 -0.959639,-4.652159 0,-2.691159 0.667575,-5.841276 0.667574,-3.1709785 1.940138,-5.3823187 1.293425,-2.2322019 3.06667,-2.2322019 0.959638,0 1.543766,0.834468 0.584127,0.8136063 0.584127,2.1278934 0,1.7106594 -0.646712,3.4004571 -0.646713,1.6897981 -2.148756,3.5464891 1.397734,0.104308 2.273926,1.168255 0.876191,1.043085 1.043085,2.586851 0.9805,-0.06259 2.33651,-0.417234 0.12517,-0.04172 0.292064,-0.04172 z M 62.215898,5.3609327 q -0.417234,0 -0.917915,1.251702 -0.479819,1.2308403 -0.897053,3.3587337 -0.417234,2.1278936 -0.625851,4.6521596 1.376872,-2.524266 2.190478,-4.443543 0.834468,-1.9401377 0.834468,-3.4421801 0,-0.6675744 -0.166893,-1.0222233 Q 62.4871,5.3609327 62.215898,5.3609327 Z M 61.131089,20.798591 q 0.646713,0 1.147394,-0.542404 0.500681,-0.542405 0.667574,-1.564628 -0.646712,-0.438096 -1.001361,-1.147393 -0.333788,-0.709298 -0.333788,-1.502043 0,-0.292064 0.08345,-0.792744 h -0.06258 q -0.85533,0 -1.439457,0.855329 -0.563266,0.834468 -0.563266,2.253064 0,1.189117 0.438096,1.814968 0.458957,0.625851 1.063946,0.625851 z"
         id="path6364" />
      <path
         d="m 69.301704,23.009931 q -1.293425,0 -2.065308,-0.938777 -0.771883,-0.938776 -0.771883,-2.46168 0,-1.668936 0.771883,-3.150117 0.771883,-1.502042 2.044447,-2.399095 1.293425,-0.917915 2.732882,-0.917915 0.458958,0 0.60499,0.187755 0.166893,0.166894 0.271202,0.625851 0.438095,-0.08345 0.917914,-0.08345 1.022224,0 1.022224,0.73016 0,0.438096 -0.312926,2.08617 -0.479819,2.399095 -0.479819,3.337872 0,0.312925 0.146032,0.500681 0.166894,0.187755 0.417234,0.187755 0.396372,0 0.959638,-0.500681 0.563266,-0.521542 1.522904,-1.668936 0.250341,-0.292064 0.563266,-0.292064 0.271202,0 0.417234,0.250341 0.166894,0.25034 0.166894,0.688436 0,0.834468 -0.396372,1.293425 -0.85533,1.063947 -1.814968,1.794106 -0.959639,0.73016 -1.856692,0.73016 -0.688436,0 -1.272563,-0.458957 -0.563266,-0.47982 -0.85533,-1.293426 -1.084808,1.752383 -2.732883,1.752383 z m 0.751021,-2.107032 q 0.458958,0 0.876192,-0.542404 0.417234,-0.542404 0.604989,-1.439457 l 0.771883,-3.838553 q -0.876191,0.02086 -1.627213,0.667574 -0.730159,0.625851 -1.168255,1.668936 -0.438095,1.043085 -0.438095,2.211341 0,0.646712 0.25034,0.959638 0.271202,0.312925 0.730159,0.312925 z"
         id="path6366" />
      <path
         d="m 78.036567,23.009931 q -0.792744,0 -1.126531,-0.834468 -0.312926,-0.834468 -0.312926,-2.670298 0,-2.712021 0.771883,-5.15284 0.187755,-0.604989 0.604989,-0.876191 0.438096,-0.292064 1.209979,-0.292064 0.417234,0 0.584128,0.104309 0.166893,0.104308 0.166893,0.396372 0,0.333787 -0.312925,1.502042 -0.208617,0.834468 -0.333788,1.460319 -0.12517,0.625851 -0.208617,1.543766 0.688437,-1.794106 1.543766,-2.920638 0.85533,-1.126532 1.668936,-1.606351 0.834468,-0.479819 1.522904,-0.479819 1.356011,0 1.356011,1.356011 0,0.271202 -0.187755,1.314287 -0.166894,0.834468 -0.166894,1.043085 0,0.730159 0.521543,0.730159 0.584127,0 1.502042,-0.917914 0.271202,-0.271203 0.563266,-0.271203 0.271202,0 0.417234,0.250341 0.166893,0.229479 0.166893,0.625851 0,0.771883 -0.417234,1.209978 -0.584127,0.60499 -1.376872,1.043085 -0.771883,0.417234 -1.648074,0.417234 -1.10567,0 -1.689798,-0.563265 -0.563266,-0.563266 -0.563266,-1.522905 0,-0.312925 0.06258,-0.625851 0.04172,-0.417234 0.04172,-0.563265 0,-0.333788 -0.229479,-0.333788 -0.312925,0 -0.834468,0.709298 -0.500681,0.688436 -1.001362,1.83583 -0.50068,1.147393 -0.813606,2.419957 -0.229479,0.9805 -0.542404,1.335149 -0.292064,0.333787 -0.938777,0.333787 z"
         id="path6368" />
      <path
         d="m 95.964586,18.253463 q 0.271202,0 0.417234,0.250341 0.166894,0.25034 0.166894,0.688436 0,0.834468 -0.396372,1.293425 -0.897054,1.10567 -1.961,1.814968 -1.063947,0.709298 -2.440819,0.709298 -4.255787,0 -4.255787,-5.987308 0,-0.917915 0.06258,-1.856691 h -0.813606 q -0.625851,0 -0.85533,-0.229479 -0.208617,-0.229479 -0.208617,-0.730159 0,-1.168256 0.938777,-1.168256 h 1.189117 q 0.354648,-2.294787 1.084808,-4.1932014 0.730159,-1.8984147 1.752383,-3.0249465 1.043085,-1.1265318 2.232202,-1.1265318 0.876191,0 1.376872,0.7718829 0.500681,0.7718829 0.500681,1.9401381 0,3.2335637 -2.712021,5.6326587 h 2.33651 q 0.333787,0 0.479819,0.146032 0.146032,0.146032 0.146032,0.542404 0,1.439458 -2.357372,1.439458 h -2.545127 q -0.04172,1.043085 -0.04172,1.627212 0,2.169617 0.500681,3.045809 0.521542,0.876191 1.627213,0.876191 0.897053,0 1.585489,-0.542404 0.688436,-0.542404 1.627212,-1.627213 0.250341,-0.292064 0.563266,-0.292064 z M 92.313789,6.6960815 q -0.312926,0 -0.709298,0.7927446 -0.375511,0.7718829 -0.73016,2.1696168 -0.333787,1.3768721 -0.563265,3.0666701 1.23084,-1.063947 1.835829,-2.378234 0.625851,-1.3351488 0.625851,-2.4199572 0,-1.2308403 -0.458957,-1.2308403 z"
         id="path6370" />
    </g>
  </g>
  <g
     inkscape:groupmode="layer"
     id="layer5"
     inkscape:label="Overlay"
     style="display:inline">
    <g
       aria-label="Snackbart"
       id="text17841-5"
       style="font-size:20.8617px;line-height:1.25;font-family:Pacifico;-inkscape-font-specification:'Pacifico, Normal';font-variant-ligatures:discretionary-ligatures no-contextual;display:inline;fill:#ffe24a;stroke-width:1.9022;paint-order:stroke fill markers">
      <path
         d="m 9.5635758,23.072516 q -2.7746062,0 -4.4435422,-1.043085 -1.668936,-1.063947 -1.668936,-3.233563 0,-1.147394 0.3963723,-1.752383 0.3963723,-0.60499 1.1682552,-0.60499 0.5632659,0 0.9179148,0.292064 0.3546489,0.292064 0.3546489,0.751021 0,0.417234 -0.062585,0.73016 0,0.08345 -0.041723,0.292064 -0.020862,0.208617 -0.020862,0.438095 0,0.938777 0.9387765,1.397734 0.9596382,0.458958 2.6702977,0.458958 1.773244,0 2.774606,-0.625851 1.001361,-0.646713 1.001361,-1.794106 0,-0.709298 -0.458957,-1.209979 -0.458957,-0.521543 -1.147393,-0.85533 -0.688437,-0.354649 -1.940139,-0.855329 -1.6063503,-0.625851 -2.6285736,-1.189117 -1.0013616,-0.563266 -1.7315211,-1.522904 -0.7092978,-0.9805 -0.7092978,-2.419958 0,-1.5020421 0.7927446,-2.6702973 Q 6.5386294,6.4874645 8.0406718,5.8407518 9.563576,5.1940391 11.608022,5.1940391 q 1.522904,0 2.795468,0.4589574 1.272564,0.4380957 2.023585,1.3560105 0.771883,0.9179148 0.771883,2.2530636 0,1.3142874 -0.396372,1.9818614 -0.396373,0.667575 -1.168256,0.667575 -0.542404,0 -0.917914,-0.333788 -0.354649,-0.333787 -0.354649,-0.792744 0,-0.396373 0.06259,-0.73016 0.06258,-0.6258508 0.06258,-0.7927444 0,-0.8761914 -0.85533,-1.3351488 -0.855329,-0.4589574 -2.127893,-0.4589574 -1.7941061,0 -2.7537444,0.6675744 -0.9387765,0.6467127 -0.9387765,1.8358296 0,0.7927446 0.4798191,1.3560106 0.5006808,0.563266 1.2308404,0.938776 0.7301594,0.375511 2.0444464,0.897054 1.585489,0.646712 2.545127,1.168255 0.959639,0.521542 1.627213,1.418595 0.688436,0.897053 0.688436,2.211341 0,2.46168 -1.877553,3.796829 -1.856691,1.314287 -4.9859462,1.314287 z"
         id="path5080" />
      <path
         d="m 19.566761,23.009931 q -0.792745,0 -1.126532,-0.834468 -0.312925,-0.834468 -0.312925,-2.670298 0,-2.712021 0.771882,-5.15284 0.187756,-0.604989 0.60499,-0.876191 0.438095,-0.292064 1.209978,-0.292064 0.417234,0 0.584128,0.104309 0.166894,0.104308 0.166894,0.396372 0,0.333787 -0.312926,1.502042 -0.208617,0.834468 -0.333787,1.460319 -0.12517,0.625851 -0.208617,1.543766 0.688436,-1.794106 1.543766,-2.920638 0.855329,-1.126532 1.668936,-1.606351 0.834468,-0.479819 1.522904,-0.479819 1.35601,0 1.35601,1.356011 0,0.813606 -0.458957,2.941499 -0.396372,1.814968 -0.396372,2.399096 0,0.834468 0.604989,0.834468 0.417234,0 0.9805,-0.500681 0.584127,-0.521542 1.543766,-1.668936 0.25034,-0.292064 0.563265,-0.292064 0.271203,0 0.417234,0.250341 0.166894,0.25034 0.166894,0.688436 0,0.834468 -0.396372,1.293425 -0.897053,1.10567 -1.940138,1.814968 -1.022224,0.709298 -2.336511,0.709298 -1.063946,0 -1.606351,-0.604989 -0.542404,-0.625851 -0.542404,-1.794107 0,-0.584127 0.292064,-2.08617 0.271202,-1.314287 0.271202,-1.814967 0,-0.333788 -0.229479,-0.333788 -0.271202,0 -0.771883,0.709298 -0.479819,0.688436 -1.001361,1.83583 -0.500681,1.147393 -0.813606,2.419957 -0.229479,0.9805 -0.542405,1.335149 -0.292063,0.333787 -0.938776,0.333787 z"
         id="path5082" />
      <path
         d="m 31.000927,23.009931 q -1.293426,0 -2.065308,-0.938777 -0.771883,-0.938776 -0.771883,-2.46168 0,-1.668936 0.771883,-3.150117 0.771882,-1.502042 2.044446,-2.399095 1.293426,-0.917915 2.732883,-0.917915 0.458957,0 0.604989,0.187755 0.166894,0.166894 0.271202,0.625851 0.438096,-0.08345 0.917915,-0.08345 1.022223,0 1.022223,0.73016 0,0.438096 -0.312925,2.08617 -0.479819,2.399095 -0.479819,3.337872 0,0.312925 0.146032,0.500681 0.166893,0.187755 0.417234,0.187755 0.396372,0 0.959638,-0.500681 0.563266,-0.521542 1.522904,-1.668936 0.25034,-0.292064 0.563266,-0.292064 0.271202,0 0.417234,0.250341 0.166893,0.25034 0.166893,0.688436 0,0.834468 -0.396372,1.293425 -0.85533,1.063947 -1.814968,1.794106 -0.959638,0.73016 -1.856691,0.73016 -0.688436,0 -1.272564,-0.458957 -0.563266,-0.47982 -0.855329,-1.293426 -1.084809,1.752383 -2.732883,1.752383 z m 0.751021,-2.107032 q 0.458957,0 0.876191,-0.542404 0.417234,-0.542404 0.60499,-1.439457 l 0.771883,-3.838553 q -0.876192,0.02086 -1.627213,0.667574 -0.730159,0.625851 -1.168255,1.668936 -0.438096,1.043085 -0.438096,2.211341 0,0.646712 0.250341,0.959638 0.271202,0.312925 0.730159,0.312925 z"
         id="path5084" />
      <path
         d="m 42.23919,23.009931 q -2.044446,0 -3.19184,-1.147394 -1.126532,-1.168255 -1.126532,-3.066669 0,-1.689798 0.667575,-2.962362 0.667574,-1.272564 1.731521,-1.961 1.063947,-0.688436 2.232202,-0.688436 1.147393,0 1.773244,0.688436 0.646713,0.667575 0.646713,1.731521 0,0.876192 -0.396372,1.481181 -0.375511,0.604989 -1.001362,0.604989 -0.396372,0 -0.646713,-0.187755 -0.229478,-0.187755 -0.229478,-0.521542 0,-0.146032 0.04172,-0.333788 0.04172,-0.187755 0.06258,-0.271202 0.104309,-0.312925 0.104309,-0.584127 0,-0.271202 -0.146032,-0.417234 -0.12517,-0.146032 -0.375511,-0.146032 -0.479819,0 -0.897053,0.438096 -0.417234,0.417234 -0.667574,1.147393 -0.250341,0.73016 -0.250341,1.606351 0,2.419957 2.107032,2.419957 0.85533,0 1.83583,-0.563266 1.001361,-0.584127 1.960999,-1.731521 0.250341,-0.292064 0.563266,-0.292064 0.271202,0 0.417234,0.250341 0.166894,0.25034 0.166894,0.688436 0,0.792744 -0.396372,1.293425 -0.9805,1.209979 -2.357373,1.877553 -1.35601,0.646713 -2.628574,0.646713 z"
         id="path5086" />
      <path
         d="m 57.972824,18.253463 q 0.271203,0 0.417234,0.250341 0.166894,0.25034 0.166894,0.688436 0,0.834468 -0.396372,1.293425 -0.938777,1.147394 -1.898415,1.83583 -0.959638,0.688436 -2.273925,0.688436 -1.606351,0 -2.586851,-0.917915 -0.9805,-0.917915 -0.9805,-2.440819 0,-0.813606 0.834468,-1.168255 0.917915,-0.396372 1.314287,-0.834468 0.396372,-0.458957 0.396372,-1.10567 0,-0.375511 -0.166893,-0.563266 -0.146032,-0.187755 -0.375511,-0.187755 -0.563266,0 -1.251702,0.813606 -0.667574,0.813606 -1.251702,2.107032 -0.584127,1.272563 -0.917915,2.628574 -0.229478,0.9805 -0.542404,1.335149 -0.292064,0.333787 -0.938776,0.333787 -0.646713,0 -0.959639,-0.458957 -0.292063,-0.47982 -0.396372,-1.460319 -0.104308,-0.9805 -0.104308,-2.878915 0,-3.212702 0.646712,-6.696606 0.667575,-3.4839037 1.940138,-5.8412758 1.293426,-2.3782338 3.087532,-2.3782338 0.959638,0 1.543766,0.834468 0.604989,0.8136063 0.604989,2.1278934 0,2.1070317 -1.23084,4.3809572 -1.23084,2.253063 -4.005447,5.27801 -0.06258,1.084808 -0.06258,2.232202 1.001362,-2.607713 2.294787,-3.775968 1.293426,-1.189117 2.419958,-1.189117 1.043085,0 1.668936,0.709298 0.646712,0.709298 0.646712,1.752383 0,1.147393 -0.584127,2.107032 -0.584128,0.959638 -2.002724,1.710659 0.08345,0.563266 0.500681,0.917915 0.438096,0.333787 1.043085,0.333787 0.646713,0 1.251702,-0.500681 0.60499,-0.500681 1.58549,-1.668936 0.25034,-0.292064 0.563265,-0.292064 z M 51.29708,5.3609327 q -0.37551,0 -0.834468,1.0848084 -0.458957,1.0639467 -0.897053,2.8997763 -0.417234,1.8149676 -0.688436,3.9637226 1.293426,-1.522904 2.127894,-3.3170099 0.855329,-1.7941062 0.855329,-3.2544252 0,-0.6675744 -0.146032,-1.0222233 Q 51.568282,5.3609327 51.29708,5.3609327 Z"
         id="path5088" />
      <path
         d="m 67.973727,16.501081 q 0.271202,0 0.417234,0.271202 0.146032,0.271202 0.146032,0.688436 0,0.521542 -0.146032,0.813606 -0.146032,0.271202 -0.458957,0.375511 -1.251702,0.438095 -2.753745,0.50068 -0.417234,1.731522 -1.585489,2.795468 -1.147394,1.063947 -2.545127,1.063947 -2.107032,0 -3.06667,-1.606351 -0.959639,-1.606351 -0.959639,-4.652159 0,-2.691159 0.667575,-5.841276 0.667574,-3.1709785 1.940138,-5.3823187 1.293425,-2.2322019 3.06667,-2.2322019 0.959638,0 1.543766,0.834468 0.584127,0.8136063 0.584127,2.1278934 0,1.7106594 -0.646712,3.4004571 -0.646713,1.6897981 -2.148756,3.5464891 1.397734,0.104308 2.273926,1.168255 0.876191,1.043085 1.043085,2.586851 0.9805,-0.06259 2.33651,-0.417234 0.12517,-0.04172 0.292064,-0.04172 z M 62.215898,5.3609327 q -0.417234,0 -0.917915,1.251702 -0.479819,1.2308403 -0.897053,3.3587337 -0.417234,2.1278936 -0.625851,4.6521596 1.376872,-2.524266 2.190478,-4.443543 0.834468,-1.9401377 0.834468,-3.4421801 0,-0.6675744 -0.166893,-1.0222233 Q 62.4871,5.3609327 62.215898,5.3609327 Z M 61.131089,20.798591 q 0.646713,0 1.147394,-0.542404 0.500681,-0.542405 0.667574,-1.564628 -0.646712,-0.438096 -1.001361,-1.147393 -0.333788,-0.709298 -0.333788,-1.502043 0,-0.292064 0.08345,-0.792744 h -0.06258 q -0.85533,0 -1.439457,0.855329 -0.563266,0.834468 -0.563266,2.253064 0,1.189117 0.438096,1.814968 0.458957,0.625851 1.063946,0.625851 z"
         id="path5090" />
      <path
         d="m 69.301704,23.009931 q -1.293425,0 -2.065308,-0.938777 -0.771883,-0.938776 -0.771883,-2.46168 0,-1.668936 0.771883,-3.150117 0.771883,-1.502042 2.044447,-2.399095 1.293425,-0.917915 2.732882,-0.917915 0.458958,0 0.60499,0.187755 0.166893,0.166894 0.271202,0.625851 0.438095,-0.08345 0.917914,-0.08345 1.022224,0 1.022224,0.73016 0,0.438096 -0.312926,2.08617 -0.479819,2.399095 -0.479819,3.337872 0,0.312925 0.146032,0.500681 0.166894,0.187755 0.417234,0.187755 0.396372,0 0.959638,-0.500681 0.563266,-0.521542 1.522904,-1.668936 0.250341,-0.292064 0.563266,-0.292064 0.271202,0 0.417234,0.250341 0.166894,0.25034 0.166894,0.688436 0,0.834468 -0.396372,1.293425 -0.85533,1.063947 -1.814968,1.794106 -0.959639,0.73016 -1.856692,0.73016 -0.688436,0 -1.272563,-0.458957 -0.563266,-0.47982 -0.85533,-1.293426 -1.084808,1.752383 -2.732883,1.752383 z m 0.751021,-2.107032 q 0.458958,0 0.876192,-0.542404 0.417234,-0.542404 0.604989,-1.439457 l 0.771883,-3.838553 q -0.876191,0.02086 -1.627213,0.667574 -0.730159,0.625851 -1.168255,1.668936 -0.438095,1.043085 -0.438095,2.211341 0,0.646712 0.25034,0.959638 0.271202,0.312925 0.730159,0.312925 z"
         id="path5092" />
      <path
         d="m 78.036567,23.009931 q -0.792744,0 -1.126531,-0.834468 -0.312926,-0.834468 -0.312926,-2.670298 0,-2.712021 0.771883,-5.15284 0.187755,-0.604989 0.604989,-0.876191 0.438096,-0.292064 1.209979,-0.292064 0.417234,0 0.584128,0.104309 0.166893,0.104308 0.166893,0.396372 0,0.333787 -0.312925,1.502042 -0.208617,0.834468 -0.333788,1.460319 -0.12517,0.625851 -0.208617,1.543766 0.688437,-1.794106 1.543766,-2.920638 0.85533,-1.126532 1.668936,-1.606351 0.834468,-0.479819 1.522904,-0.479819 1.356011,0 1.356011,1.356011 0,0.271202 -0.187755,1.314287 -0.166894,0.834468 -0.166894,1.043085 0,0.730159 0.521543,0.730159 0.584127,0 1.502042,-0.917914 0.271202,-0.271203 0.563266,-0.271203 0.271202,0 0.417234,0.250341 0.166893,0.229479 0.166893,0.625851 0,0.771883 -0.417234,1.209978 -0.584127,0.60499 -1.376872,1.043085 -0.771883,0.417234 -1.648074,0.417234 -1.10567,0 -1.689798,-0.563265 -0.563266,-0.563266 -0.563266,-1.522905 0,-0.312925 0.06258,-0.625851 0.04172,-0.417234 0.04172,-0.563265 0,-0.333788 -0.229479,-0.333788 -0.312925,0 -0.834468,0.709298 -0.500681,0.688436 -1.001362,1.83583 -0.50068,1.147393 -0.813606,2.419957 -0.229479,0.9805 -0.542404,1.335149 -0.292064,0.333787 -0.938777,0.333787 z"
         id="path5094" />
      <path
         d="m 95.964586,18.253463 q 0.271202,0 0.417234,0.250341 0.166894,0.25034 0.166894,0.688436 0,0.834468 -0.396372,1.293425 -0.897054,1.10567 -1.961,1.814968 -1.063947,0.709298 -2.440819,0.709298 -4.255787,0 -4.255787,-5.987308 0,-0.917915 0.06258,-1.856691 H 86.74371 q -0.625851,0 -0.85533,-0.229479 -0.208617,-0.229479 -0.208617,-0.730159 0,-1.168256 0.938777,-1.168256 h 1.189117 q 0.354648,-2.294787 1.084808,-4.1932014 0.730159,-1.8984147 1.752383,-3.0249465 1.043085,-1.1265318 2.232202,-1.1265318 0.876191,0 1.376872,0.7718829 0.500681,0.7718829 0.500681,1.9401381 0,3.2335637 -2.712021,5.6326587 h 2.33651 q 0.333787,0 0.479819,0.146032 0.146032,0.146032 0.146032,0.542404 0,1.439458 -2.357372,1.439458 h -2.545127 q -0.04172,1.043085 -0.04172,1.627212 0,2.169617 0.500681,3.045809 0.521542,0.876191 1.627213,0.876191 0.897053,0 1.585489,-0.542404 0.688436,-0.542404 1.627212,-1.627213 0.250341,-0.292064 0.563267,-0.292064 z M 92.313789,6.6960815 q -0.312926,0 -0.709298,0.7927446 -0.375511,0.7718829 -0.73016,2.1696168 -0.333787,1.3768721 -0.563265,3.0666701 1.23084,-1.063947 1.835829,-2.378234 0.625851,-1.3351488 0.625851,-2.4199572 0,-1.2308403 -0.458957,-1.2308403 z"
         id="path5096" />
    </g>
  </g>
</svg>
